HIERARCHY
ROOT hip
{
	OFFSET 0.00 0.00 0.00
	CHANNELS 6 Xposition Yposition Zposition Xrotation Yrotation Zrotation
	JOINT abdomen
	{
		OFFSET 0.1133 -0.2307 3.3019
		CHANNELS 3 Xrotation Yrotation Zrotation
		JOINT chest
		{
			OFFSET 0.1107 0.0732 15.6147
			CHANNELS 3 Xrotation Yrotation Zrotation
			JOINT neck
			{
				OFFSET 0.0000 -0.0241 22.6468
				CHANNELS 3 Xrotation Yrotation Zrotation
				JOINT head
				{
					OFFSET -0.2563 5.6164 9.0688
					CHANNELS 3 Xrotation Yrotation Zrotation
					End Site
					{
						OFFSET 0.0000 3.1102 -0.0000
					}
				}
			}
			JOINT lCollar
			{
				OFFSET 3.1323 -2.6098 20.8127
				CHANNELS 3 Xrotation Yrotation Zrotation
				JOINT lShldr
				{
					OFFSET 3.2739 -5.2688 -1.2145
					CHANNELS 3 Xrotation Yrotation Zrotation
					JOINT lForeArm
					{
						OFFSET -0.3326 -12.9583 -1.4234
						CHANNELS 3 Xrotation Yrotation Zrotation
						JOINT lHand
						{
							OFFSET -0.8016 -18.3420 1.0179
							CHANNELS 3 Xrotation Yrotation Zrotation
							End Site
							{
								OFFSET 3.9370 0.0000 0.0000
							}
						}
					}
				}
			}
			JOINT rCollar
			{
				OFFSET -2.7896 -2.6098 20.8127
				CHANNELS 3 Xrotation Yrotation Zrotation
				JOINT rShldr
				{
					OFFSET -3.2739 -5.2688 -1.2145
					CHANNELS 3 Xrotation Yrotation Zrotation
					JOINT rForeArm
					{
						OFFSET 0.3326 -12.9583 -1.4234
						CHANNELS 3 Xrotation Yrotation Zrotation
						JOINT rHand
						{
							OFFSET 0.8016 -18.3420 1.0179
							CHANNELS 3 Xrotation Yrotation Zrotation
							End Site
							{
								OFFSET -3.9370 0.0000 0.0000
							}
						}
					}
				}
			}
		}
	}
	JOINT rThigh
	{
		OFFSET -4.8916 -5.5348 3.1237
		CHANNELS 3 Xrotation Yrotation Zrotation
		JOINT rShin
		{
			OFFSET -0.3314 -21.3076 -7.1952
			CHANNELS 3 Xrotation Yrotation Zrotation
			JOINT rFoot
			{
				OFFSET 0.5200 -10.7369 0.2921
				CHANNELS 3 Xrotation Yrotation Zrotation
				End Site
				{
					OFFSET 0.0000 -2.3873 4.4077
				}
			}
		}
	}
	JOINT lThigh
	{
		OFFSET 5.6823 -5.5348 3.1237
		CHANNELS 3 Xrotation Yrotation Zrotation
		JOINT lShin
		{
			OFFSET 0.3314 -21.3076 -7.1952
			CHANNELS 3 Xrotation Yrotation Zrotation
			JOINT lFoot
			{
				OFFSET -0.5200 -10.7369 0.2921
				CHANNELS 3 Xrotation Yrotation Zrotation
				End Site
				{
					OFFSET 0.0000 -2.3866 4.4077
				}
			}
		}
	}
}
MOTION
Frames: 26
Frame Time: 0.040000
0.0000 0.0000 0.1000 1.0000 0.0000 0.0000 1.0000 0.0000 0.0000 1.5155 0.0000 0.0000 0.0000 0.0000 0.0000 1.0000 0.0000 0.0000 0.0000 0.0000 0.0000 0.0000 0.0000 0.0000 0.0000 0.0000 0.0000 0.0000 0.0000 0.0000 0.0000 0.0000 0.0000 0.0000 0.0000 0.0000 0.0000 0.0000 0.0000 0.0000 0.0000 0.0000 0.0000 0.0000 0.0000 0.0000 0.0000 0.0000 0.0000 0.0000 0.0000 0.0000 0.0000 0.0000 0.0000 0.0000 0.0000 0.0000 0.0000 0.0000 
0.0000 -0.0000 -0.0000 0.0000 0.0000 0.0000 0.0000 0.0000 0.0000 0.5155 0.0000 0.0000 32.0810 0.0000 0.0000 0.0000 0.0000 0.0000 0.1021 -1.3987 8.3492 6.8411 0.0000 0.0000 -77.3443 0.0000 0.0000 77.1616 0.0000 0.0000 0.1558 1.7251 -10.3181 6.8411 0.0000 0.0000 -77.3443 0.0000 0.0000 77.1616 0.0000 0.0000 -74.4397 -0.9668 -9.0973 -0.0117 0.3777 3.5407 67.5989 4.7715 -3.9892 -74.6825 1.9510 18.6118 -0.6012 -2.6430 -25.6256 73.6447 6.1850 -5.7511 
0.0000 -0.0000 -0.0000 0.0000 0.0000 0.0000 0.0000 0.0000 0.0000 0.5155 0.0000 0.0000 32.0877 0.0027 0.0062 0.0000 0.0000 0.0000 0.1021 -1.3987 8.3492 6.8411 0.0000 0.0000 -77.3443 0.0000 0.0000 77.1616 0.0000 0.0000 0.1558 1.7251 -10.3181 6.8411 0.0000 0.0000 -77.3443 0.0000 0.0000 77.1616 0.0000 0.0000 -74.4397 -0.9668 -9.0973 -0.0117 0.3777 3.5407 67.5989 4.7715 -3.9892 -74.6825 1.9510 18.6118 -0.6012 -2.6430 -25.6256 73.6447 6.1850 -5.7511 
0.0000 -0.0000 -0.0000 0.0000 0.0000 0.0000 0.0000 0.0000 0.0000 0.5155 0.0000 0.0000 32.0939 0.0106 0.0247 0.0000 0.0000 0.0000 0.1021 -1.3987 8.3492 6.8411 0.0000 0.0000 -77.3443 0.0000 0.0000 77.1616 0.0000 0.0000 0.1558 1.7251 -10.3181 6.8411 0.0000 0.0000 -77.3443 0.0000 0.0000 77.1616 0.0000 0.0000 -74.4397 -0.9668 -9.0973 -0.0117 0.3777 3.5407 67.5989 4.7715 -3.9892 -74.6825 1.9510 18.6118 -0.6012 -2.6430 -25.6256 73.6447 6.1850 -5.7511 
-0.0000 -0.0000 -0.0000 0.0000 0.0000 0.0000 0.0000 0.0000 0.0000 0.5155 0.0000 0.0000 32.0997 0.0238 0.0556 0.0000 0.0000 0.0000 0.1021 -1.3987 8.3492 6.8411 0.0000 0.0000 -77.3443 0.0000 0.0000 77.1616 0.0000 0.0000 0.1558 1.7251 -10.3181 6.8411 0.0000 0.0000 -77.3443 0.0000 0.0000 77.1616 0.0000 0.0000 -74.4397 -0.9668 -9.0973 -0.0117 0.3777 3.5407 67.5989 4.7715 -3.9892 -74.6825 1.9510 18.6118 -0.6012 -2.6430 -25.6256 73.6447 6.1850 -5.7511 
0.0000 -0.0000 -0.0000 0.0000 0.0000 0.0000 0.0000 0.0000 0.0000 0.5155 0.0000 0.0000 32.1049 0.0423 0.0989 0.0000 0.0000 0.0000 0.1021 -1.3987 8.3492 6.8411 0.0000 0.0000 -77.3443 0.0000 0.0000 77.1616 0.0000 0.0000 0.1558 1.7251 -10.3181 6.8411 0.0000 0.0000 -77.3443 0.0000 0.0000 77.1616 0.0000 0.0000 -74.4397 -0.9668 -9.0973 -0.0117 0.3777 3.5407 67.5989 4.7715 -3.9892 -74.6825 1.9510 18.6118 -0.6012 -2.6430 -25.6256 73.6447 6.1850 -5.7511 
0.0000 -0.0000 -0.0000 0.0000 0.0000 0.0000 0.0000 0.0000 0.0000 0.5155 0.0000 0.0000 32.1097 0.0661 0.1548 0.0000 0.0000 0.0000 0.1021 -1.3987 8.3492 6.8411 0.0000 0.0000 -77.3443 0.0000 0.0000 77.1616 0.0000 0.0000 0.1558 1.7251 -10.3181 6.8411 0.0000 0.0000 -77.3443 0.0000 0.0000 77.1616 0.0000 0.0000 -74.4397 -0.9668 -9.0973 -0.0117 0.3777 3.5407 67.5989 4.7715 -3.9892 -74.6825 1.9510 18.6118 -0.6012 -2.6430 -25.6256 73.6447 6.1850 -5.7511 
0.0000 -0.0000 -0.0000 0.0000 0.0000 0.0000 0.0000 0.0000 0.0000 0.5155 0.0000 0.0000 32.1139 0.0952 0.2230 0.0000 0.0000 0.0000 0.1021 -1.3987 8.3492 6.8411 0.0000 0.0000 -77.3443 0.0000 0.0000 77.1616 0.0000 0.0000 0.1558 1.7251 -10.3181 6.8411 0.0000 0.0000 -77.3443 0.0000 0.0000 77.1616 0.0000 0.0000 -74.4397 -0.9668 -9.0973 -0.0117 0.3777 3.5407 67.5989 4.7715 -3.9892 -74.6825 1.9510 18.6118 -0.6012 -2.6430 -25.6256 73.6447 6.1850 -5.7511 
0.0000 -0.0000 -0.0000 0.0000 0.0000 0.0000 0.0000 0.0000 0.0000 0.5155 0.0000 0.0000 32.1176 0.1296 0.3036 0.0000 0.0000 0.0000 0.1021 -1.3987 8.3492 6.8411 0.0000 0.0000 -77.3443 0.0000 0.0000 77.1616 0.0000 0.0000 0.1558 1.7251 -10.3181 6.8411 0.0000 0.0000 -77.3443 0.0000 0.0000 77.1616 0.0000 0.0000 -74.4397 -0.9668 -9.0973 -0.0117 0.3777 3.5407 67.5989 4.7715 -3.9892 -74.6825 1.9510 18.6118 -0.6012 -2.6430 -25.6256 73.6447 6.1850 -5.7511 
0.0000 -0.0000 -0.0000 0.0000 0.0000 0.0000 0.0000 0.0000 0.0000 0.5155 0.0000 0.0000 32.1207 0.1691 0.3964 0.0000 0.0000 0.0000 0.1021 -1.3987 8.3492 6.8411 0.0000 0.0000 -77.3443 0.0000 0.0000 77.1616 0.0000 0.0000 0.1558 1.7251 -10.3181 6.8411 0.0000 0.0000 -77.3443 0.0000 0.0000 77.1616 0.0000 0.0000 -74.4397 -0.9668 -9.0973 -0.0117 0.3777 3.5407 67.5989 4.7715 -3.9892 -74.6825 1.9510 18.6118 -0.6012 -2.6430 -25.6256 73.6447 6.1850 -5.7511 
0.0000 -0.0000 -0.0000 0.0000 0.0000 0.0000 0.0000 0.0000 0.0000 0.5155 0.0000 0.0000 32.1232 0.2137 0.5010 0.0000 0.0000 0.0000 0.1021 -1.3987 8.3492 6.8411 0.0000 0.0000 -77.3443 0.0000 0.0000 77.1616 0.0000 0.0000 0.1558 1.7251 -10.3181 6.8411 0.0000 0.0000 -77.3443 0.0000 0.0000 77.1616 0.0000 0.0000 -74.4397 -0.9668 -9.0973 -0.0117 0.3777 3.5407 67.5989 4.7715 -3.9892 -74.6825 1.9510 18.6118 -0.6012 -2.6430 -25.6256 73.6447 6.1850 -5.7511 
0.0000 -0.0000 -0.0000 0.0000 0.0000 0.0000 0.0000 0.0000 0.0000 0.5155 0.0000 0.0000 32.1251 0.2632 0.6171 0.0000 0.0000 0.0000 0.1021 -1.3987 8.3492 6.8411 0.0000 0.0000 -77.3443 0.0000 0.0000 77.1616 0.0000 0.0000 0.1558 1.7251 -10.3181 6.8411 0.0000 0.0000 -77.3443 0.0000 0.0000 77.1616 0.0000 0.0000 -74.4397 -0.9668 -9.0973 -0.0117 0.3777 3.5407 67.5989 4.7715 -3.9892 -74.6825 1.9510 18.6118 -0.6012 -2.6430 -25.6256 73.6447 6.1850 -5.7511 
0.0000 -0.0000 -0.0000 0.0000 0.0000 0.0000 0.0000 0.0000 0.0000 0.5155 0.0000 0.0000 32.1263 0.3175 0.7443 0.0000 0.0000 0.0000 0.1021 -1.3987 8.3492 6.8411 0.0000 0.0000 -77.3443 0.0000 0.0000 77.1616 0.0000 0.0000 0.1558 1.7251 -10.3181 6.8411 0.0000 0.0000 -77.3443 0.0000 0.0000 77.1616 0.0000 0.0000 -74.4397 -0.9668 -9.0973 -0.0117 0.3777 3.5407 67.5989 4.7715 -3.9892 -74.6825 1.9510 18.6118 -0.6012 -2.6430 -25.6256 73.6447 6.1850 -5.7511 
0.0000 -0.0000 -0.0000 0.0000 0.0000 0.0000 0.0000 0.0000 0.0000 0.5155 0.0000 0.0000 32.1269 0.3762 0.8821 0.0000 0.0000 0.0000 0.1021 -1.3987 8.3492 6.8411 0.0000 0.0000 -77.3443 0.0000 0.0000 77.1616 0.0000 0.0000 0.1558 1.7251 -10.3181 6.8411 0.0000 0.0000 -77.3443 0.0000 0.0000 77.1616 0.0000 0.0000 -74.4397 -0.9668 -9.0973 -0.0117 0.3777 3.5407 67.5989 4.7715 -3.9892 -74.6825 1.9510 18.6118 -0.6012 -2.6430 -25.6256 73.6447 6.1850 -5.7511 
0.0000 -0.0000 -0.0000 0.0000 0.0000 0.0000 0.0000 0.0000 0.0000 0.5155 0.0000 0.0000 32.1267 0.4391 1.0297 0.0000 0.0000 0.0000 0.1021 -1.3987 8.3492 6.8411 0.0000 0.0000 -77.3443 0.0000 0.0000 77.1616 0.0000 0.0000 0.1558 1.7251 -10.3181 6.8411 0.0000 0.0000 -77.3443 0.0000 0.0000 77.1616 0.0000 0.0000 -74.4397 -0.9668 -9.0973 -0.0117 0.3777 3.5407 67.5989 4.7715 -3.9892 -74.6825 1.9510 18.6118 -0.6012 -2.6430 -25.6256 73.6447 6.1850 -5.7511 
0.0000 -0.0000 -0.0000 0.0000 0.0000 0.0000 0.0000 0.0000 0.0000 0.5155 0.0000 0.0000 32.1259 0.5058 1.1865 0.0000 0.0000 0.0000 0.1021 -1.3987 8.3492 6.8411 0.0000 0.0000 -77.3443 0.0000 0.0000 77.1616 0.0000 0.0000 0.1558 1.7251 -10.3181 6.8411 0.0000 0.0000 -77.3443 0.0000 0.0000 77.1616 0.0000 0.0000 -74.4397 -0.9668 -9.0973 -0.0117 0.3777 3.5407 67.5989 4.7715 -3.9892 -74.6825 1.9510 18.6118 -0.6012 -2.6430 -25.6256 73.6447 6.1850 -5.7511 
0.0000 -0.0000 -0.0000 0.0000 0.0000 0.0000 0.0000 0.0000 0.0000 0.5155 0.0000 0.0000 32.1244 0.5761 1.3515 0.0000 0.0000 0.0000 0.1021 -1.3987 8.3492 6.8411 0.0000 0.0000 -77.3443 0.0000 0.0000 77.1616 0.0000 0.0000 0.1558 1.7251 -10.3181 6.8411 0.0000 0.0000 -77.3443 0.0000 0.0000 77.1616 0.0000 0.0000 -74.4397 -0.9668 -9.0973 -0.0117 0.3777 3.5407 67.5989 4.7715 -3.9892 -74.6825 1.9510 18.6118 -0.6012 -2.6430 -25.6256 73.6447 6.1850 -5.7511 
0.0000 -0.0000 -0.0000 0.0000 0.0000 0.0000 0.0000 0.0000 0.0000 0.5155 0.0000 0.0000 32.1221 0.6495 1.5239 0.0000 0.0000 0.0000 0.1021 -1.3987 8.3492 6.8411 0.0000 0.0000 -77.3443 0.0000 0.0000 77.1616 0.0000 0.0000 0.1558 1.7251 -10.3181 6.8411 0.0000 0.0000 -77.3443 0.0000 0.0000 77.1616 0.0000 0.0000 -74.4397 -0.9668 -9.0973 -0.0117 0.3777 3.5407 67.5989 4.7715 -3.9892 -74.6825 1.9510 18.6118 -0.6012 -2.6430 -25.6256 73.6447 6.1850 -5.7511 
0.0000 -0.0000 -0.0000 0.0000 0.0000 0.0000 0.0000 0.0000 0.0000 0.5155 0.0000 0.0000 32.1192 0.7256 1.7025 0.0000 0.0000 0.0000 0.1021 -1.3987 8.3492 6.8411 0.0000 0.0000 -77.3443 0.0000 0.0000 77.1616 0.0000 0.0000 0.1558 1.7251 -10.3181 6.8411 0.0000 0.0000 -77.3443 0.0000 0.0000 77.1616 0.0000 0.0000 -74.4397 -0.9668 -9.0973 -0.0117 0.3777 3.5407 67.5989 4.7715 -3.9892 -74.6825 1.9510 18.6118 -0.6012 -2.6430 -25.6256 73.6447 6.1850 -5.7511 
0.0000 -0.0000 -0.0000 0.0000 0.0000 0.0000 0.0000 0.0000 0.0000 0.5155 0.0000 0.0000 32.1155 0.8037 1.8862 0.0000 0.0000 0.0000 0.1021 -1.3987 8.3492 6.8411 0.0000 0.0000 -77.3443 0.0000 0.0000 77.1616 0.0000 0.0000 0.1558 1.7251 -10.3181 6.8411 0.0000 0.0000 -77.3443 0.0000 0.0000 77.1616 0.0000 0.0000 -74.4397 -0.9668 -9.0973 -0.0117 0.3777 3.5407 67.5989 4.7715 -3.9892 -74.6825 1.9510 18.6118 -0.6012 -2.6430 -25.6256 73.6447 6.1850 -5.7511 
0.0000 -0.0000 -0.0000 0.0000 0.0000 0.0000 0.0000 0.0000 0.0000 0.5155 0.0000 0.0000 32.1113 0.8836 2.0738 0.0000 0.0000 0.0000 0.1021 -1.3987 8.3492 6.8411 0.0000 0.0000 -77.3443 0.0000 0.0000 77.1616 0.0000 0.0000 0.1558 1.7251 -10.3181 6.8411 0.0000 0.0000 -77.3443 0.0000 0.0000 77.1616 0.0000 0.0000 -74.4397 -0.9668 -9.0973 -0.0117 0.3777 3.5407 67.5989 4.7715 -3.9892 -74.6825 1.9510 18.6118 -0.6012 -2.6430 -25.6256 73.6447 6.1850 -5.7511 
0.0000 -0.0000 -0.0000 0.0000 0.0000 0.0000 0.0000 0.0000 0.0000 0.5155 0.0000 0.0000 32.1064 0.9645 2.2641 0.0000 0.0000 0.0000 0.1021 -1.3987 8.3492 6.8411 0.0000 0.0000 -77.3443 0.0000 0.0000 77.1616 0.0000 0.0000 0.1558 1.7251 -10.3181 6.8411 0.0000 0.0000 -77.3443 0.0000 0.0000 77.1616 0.0000 0.0000 -74.4397 -0.9668 -9.0973 -0.0117 0.3777 3.5407 67.5989 4.7715 -3.9892 -74.6825 1.9510 18.6118 -0.6012 -2.6430 -25.6256 73.6447 6.1850 -5.7511 
0.0000 -0.0000 -0.0000 0.0000 0.0000 0.0000 0.0000 0.0000 0.0000 0.5155 0.0000 0.0000 32.1010 1.0460 2.4557 0.0000 0.0000 0.0000 0.1021 -1.3987 8.3492 6.8411 0.0000 0.0000 -77.3443 0.0000 0.0000 77.1616 0.0000 0.0000 0.1558 1.7251 -10.3181 6.8411 0.0000 0.0000 -77.3443 0.0000 0.0000 77.1616 0.0000 0.0000 -74.4397 -0.9668 -9.0973 -0.0117 0.3777 3.5407 67.5989 4.7715 -3.9892 -74.6825 1.9510 18.6118 -0.6012 -2.6430 -25.6256 73.6447 6.1850 -5.7511 
0.0000 -0.0000 -0.0000 0.0000 0.0000 0.0000 0.0000 0.0000 0.0000 0.5155 0.0000 0.0000 32.0950 1.1274 2.6473 0.0000 0.0000 0.0000 0.1021 -1.3987 8.3492 6.8411 0.0000 0.0000 -77.3443 0.0000 0.0000 77.1616 0.0000 0.0000 0.1558 1.7251 -10.3181 6.8411 0.0000 0.0000 -77.3443 0.0000 0.0000 77.1616 0.0000 0.0000 -74.4397 -0.9668 -9.0973 -0.0117 0.3777 3.5407 67.5989 4.7715 -3.9892 -74.6825 1.9510 18.6118 -0.6012 -2.6430 -25.6256 73.6447 6.1850 -5.7511 
0.0000 -0.0000 -0.0000 0.0000 0.0000 0.0000 0.0000 0.0000 0.0000 0.5155 0.0000 0.0000 32.0886 1.2082 2.8376 0.0000 0.0000 0.0000 0.1021 -1.3987 8.3492 6.8411 0.0000 0.0000 -77.3443 0.0000 0.0000 77.1616 0.0000 0.0000 0.1558 1.7251 -10.3181 6.8411 0.0000 0.0000 -77.3443 0.0000 0.0000 77.1616 0.0000 0.0000 -74.4397 -0.9668 -9.0973 -0.0117 0.3777 3.5407 67.5989 4.7715 -3.9892 -74.6825 1.9510 18.6118 -0.6012 -2.6430 -25.6256 73.6447 6.1850 -5.7511 
0.0000 -0.0000 -0.0000 0.0000 0.0000 0.0000 0.0000 0.0000 0.0000 0.5155 0.0000 0.0000 32.0819 1.2879 3.0252 0.0000 0.0000 0.0000 0.1021 -1.3987 8.3492 6.8411 0.0000 0.0000 -77.3443 0.0000 0.0000 77.1616 0.0000 0.0000 0.1558 1.7251 -10.3181 6.8411 0.0000 0.0000 -77.3443 0.0000 0.0000 77.1616 0.0000 0.0000 -74.4397 -0.9668 -9.0973 -0.0117 0.3777 3.5407 67.5989 4.7715 -3.9892 -74.6825 1.9510 18.6118 -0.6012 -2.6430 -25.6256 73.6447 6.1850 -5.7511 
